<svg xmlns="http://www.w3.org/2000/svg" xml:space="preserve" width="16" height="16"><g style="fill:#e0e0e0;fill-opacity:1"><path d="M227.091-594.01c-6.607 5.99-8.74 13.584-6.497 22.69 2.239 9.108 7.83 16.057 16.817 20.906l50.897 13.145L456.07-689.384l-8.114-51.937c-3.948-9.418-10.338-15.644-19.217-18.731-8.875-3.091-16.7-1.657-23.369 4.39zm83.466 98.31 21.08 139.08c2.647 17.204 8.087 34.207 16.274 50.88 8.19 16.68 18.605 32.01 31.26 45.969 30.789 33.955 67.283 53.847 109.485 59.7 42.201 5.855 77.496-4.074 105.843-29.777l137.64-124.803c28.684-26.009 42.1-60.245 40.222-102.662-1.875-42.42-18.17-80.57-48.82-114.374-12.798-14.114-27.068-26.007-42.863-35.781-15.8-9.78-32.19-16.854-49.05-21.162l-136.972-33.998z" style="fill:#e0e0e0;fill-opacity:1;stroke-width:.803874" transform="translate(-3.82 19.437)scale(.02383)"/></g></svg>