<svg xmlns="http://www.w3.org/2000/svg" xmlns:xlink="http://www.w3.org/1999/xlink" width="196" height="196"><defs><radialGradient xlink:href="#a" id="b" cx="223.975" cy="133.952" r="44.334" fx="223.975" fy="133.952" gradientTransform="matrix(1.42359 .06413 -.03278 .72769 -90.482 19.086)" gradientUnits="userSpaceOnUse"/><linearGradient id="a"><stop offset="0" style="stop-color:#000;stop-opacity:.5660066"/><stop offset="1" style="stop-color:#000;stop-opacity:0"/></linearGradient><clipPath id="c" clipPathUnits="userSpaceOnUse"><path d="M364.856 109.429c-33.429 0-60.528 28.844-60.528 64.426a68.254 68.254 0 0 0 2.723 18.925h17.245v23.31h20.22v-22.854h19.728v23.233h20.515V192.78h20.713v-23.575h19.735c-2.29-33.682-28.625-59.766-60.351-59.776zm-40.162 59.89h19.43v23.421h-19.43zm60.363 46.637v23.349h20.22v-23.349zm-40.743 11.336v23.35h20.22v-23.35z" style="fill:#2cdbff;fill-opacity:1;stroke:none;stroke-width:10.5833;stroke-linecap:round;stroke-linejoin:round;paint-order:markers stroke fill"/></clipPath></defs><path d="M16.651 108.032h25.391v25.991H16.651z" style="fill:#fff;fill-opacity:1;stroke:none;stroke-width:18.8168;stroke-linecap:round;stroke-linejoin:round;stroke-opacity:1;paint-order:markers stroke fill" transform="translate(34.49 .464)"/><path d="m73.88 4.883-4.494 9.723a43.803 38.902 0 0 0-6.037-.376 43.803 38.902 0 0 0-4.83.307l-4.882-9.103-13.164 4.309.936 9.818a43.803 38.902 0 0 0-10.468 7.475l-8.057-4.81-8.85 11.71 7.002 9.395a43.803 38.902 0 0 0-1.491 9.8 43.803 38.902 0 0 0 1.154 8.427 13.606 13.588 0 0 0-6.941-2.016A13.606 13.588 0 0 0 .152 73.132a13.606 13.588 0 0 0 5.132 10.595c-6.067 9.356-9.563 20.29-9.563 31.978a57.945 57.945 0 0 0 3.057 18.358H18.12v22.61h22.678v-22.169h22.124v22.539h23.01v-22.98h23.23v-22.87h22.136c-.799-10.157-4.21-19.6-9.592-27.794a13.606 13.588 0 0 0 5.384-10.785 13.606 13.588 0 0 0-13.608-13.588 13.606 13.588 0 0 0-7.433 2.323 43.803 38.902 0 0 0 1.103-8.217 43.803 38.902 0 0 0-1.076-8.519l7.406-10.677-8.96-11.378-8.489 4.69a43.803 38.902 0 0 0-9.788-7.27l.578-10.235Zm-55.316 106.42h21.793v22.721H18.564Zm67.702 45.242v22.648h22.678v-22.648zm-45.694 10.993v22.652H63.25v-22.652z" style="fill:#fff;fill-opacity:1;stroke:#fff;stroke-width:8.92175;stroke-linecap:round;stroke-linejoin:round;stroke-opacity:1;paint-order:markers stroke fill" transform="translate(34.49 .464)"/><g style="stroke-width:.752131" transform="matrix(1.12156 0 0 1.12008 -208.894 -105.805)"><g style="stroke-width:.752131" transform="translate(50.347 28.91)"><path d="m232.47 70.323-4.006 8.681a39.055 34.731 0 0 0-5.384-.335 39.055 34.731 0 0 0-4.305.274l-4.354-8.127-11.736 3.847.834 8.765a39.055 34.731 0 0 0-9.334 6.676l-7.183-4.296-7.89 10.455 6.242 8.387a39.055 34.731 0 0 0-1.329 8.75 39.055 34.731 0 0 0 39.055 34.732 39.055 34.731 0 0 0 39.056-34.732 39.055 34.731 0 0 0-.959-7.606l6.603-9.531-7.989-10.16-7.568 4.188a39.055 34.731 0 0 0-8.728-6.488l.515-9.14z" style="fill:#478cbf;fill-opacity:1;stroke:none;stroke-width:7.96002;stroke-linecap:round;stroke-linejoin:round;paint-order:markers stroke fill"/><rect width="6.115" height="13.71" x="219.057" y="109.578" rx="3.058" ry="3.058" style="fill:#fff;fill-opacity:1;stroke:none;stroke-width:7.96002;stroke-linecap:round;stroke-linejoin:round;paint-order:markers stroke fill"/><circle cx="204.86" cy="107.699" r="10.206" style="fill:#fff;fill-opacity:1;stroke:none;stroke-width:7.96002;stroke-linecap:round;stroke-linejoin:round;paint-order:markers stroke fill"/><circle cx="205.324" cy="110.431" r="7.48" style="fill:#000;fill-opacity:1;stroke:none;stroke-width:7.96002;stroke-linecap:round;stroke-linejoin:round;paint-order:markers stroke fill"/><circle cx="240.649" cy="107.699" r="10.206" style="fill:#fff;fill-opacity:1;stroke:none;stroke-width:7.96002;stroke-linecap:round;stroke-linejoin:round;paint-order:markers stroke fill"/><circle cx="240.806" cy="110.136" r="7.48" style="fill:#000;fill-opacity:1;stroke:none;stroke-width:7.96002;stroke-linecap:round;stroke-linejoin:round;paint-order:markers stroke fill"/><path d="M230.387 79.895c-.775 1.378-2.567 1.298-3.908 1.035-2.638-.25-5.272-.043-7.89.082-1.603-.273-2.124-1.977-2.822-3.204-.797-1.474-1.584-2.953-2.376-4.43l-8.436 2.763c.2 2.535.591 5.069.61 7.611-.452 1.728-2.387 2.108-3.658 3.038-2.444 1.422-4.53 3.357-6.712 5.128-1.433.677-2.806-.411-3.974-1.123a798.876 798.876 0 0 1-3.678-2.195l-5.791 7.671c1.837 2.533 3.835 4.964 5.52 7.598.44 1.728-.631 3.333-.733 5.036-1.198 7.157.557 14.797 4.613 20.841 5.259 8.039 14.022 13.42 23.35 15.353 9.02 1.912 18.545.792 26.826-3.348 7.594-3.773 13.947-10.28 16.885-18.3 2.018-5.337 2.298-11.41.957-16.998-.325-1.734 1.169-2.978 1.974-4.327l4.006-5.784-5.908-7.518c-2.152 1.153-4.235 2.45-6.455 3.465-1.523.335-2.59-1.01-3.592-1.908-2.085-1.936-4.659-3.458-7.08-5.03-1.2-1.279-.525-3.115-.567-4.658l.259-4.593-8.239-3.096-3.181 6.89z" style="fill:none;fill-opacity:1;stroke:#fff;stroke-width:1.99001;stroke-linecap:round;stroke-linejoin:round;stroke-dasharray:none;stroke-opacity:.0573123;paint-order:markers stroke fill"/><path d="m232.47 70.323-4.006 8.681a39.055 34.731 0 0 0-5.384-.335 39.055 34.731 0 0 0-4.305.274l-4.354-8.127-11.736 3.847.834 8.765a39.055 34.731 0 0 0-9.334 6.676l-7.183-4.296-7.89 10.455 6.242 8.387a39.055 34.731 0 0 0-1.329 8.75 39.055 34.731 0 0 0 39.055 34.732 39.055 34.731 0 0 0 39.056-34.732 39.055 34.731 0 0 0-.959-7.606l6.603-9.531-7.989-10.16-7.568 4.188a39.055 34.731 0 0 0-8.728-6.488l.515-9.14z" style="fill:url(#b);fill-opacity:1;stroke:#0f2d44;stroke-width:1.99001;stroke-linecap:round;stroke-linejoin:round;stroke-dasharray:none;stroke-opacity:1;paint-order:markers stroke fill"/></g><path d="M273.66 142.349c-33.43 0-60.529 24.98-60.529 55.793a51.79 51.79 0 0 0 2.724 16.39H233.1v20.186h20.22v-19.791h19.728v20.12h20.515v-20.515h20.713v-20.416h19.735c-2.29-29.169-28.625-51.758-60.351-51.767Zm-40.162 51.865h19.43v20.283h-19.43zm60.363 40.389v20.22h20.22v-20.22Zm-40.743 9.817v20.22h20.22v-20.22z" style="fill:#01b0d5;fill-opacity:1;stroke:none;stroke-width:7.96002;stroke-linecap:round;stroke-linejoin:round;paint-order:markers stroke fill"/><g clip-path="url(#c)" style="stroke-width:.808222" transform="matrix(1 0 0 .86601 -91.196 47.582)"><path d="M393.619 138.033c-1.59.11-3.219-.079-4.775.358-3.177.71-5.59 3.073-7.01 5.722-1.251 2.172-1.995 4.595-3.316 6.716-2.727-.248-5.778-.574-8.189.914-1.963 1.189-2.592 3.607-2.028 5.638.189.833.524 1.627.872 2.41-3.134-.581-6.455-1.622-9.614-.592-2.866 1.02-4.41 3.672-6.075 5.89-.518.674-1.01 1.38-1.68 1.934-.562-.346-.657-.93-.77-1.5-.52-2.053-2.166-4.127-4.583-4.3-1.998-.187-3.804 1.032-4.877 2.506-1.182.324-2.275-.465-2.767-1.416-1.39-2.447-1.536-5.345-1.239-8.04-.234-.64-.303-1.4-.639-1.967-.887-.378-1.66-1.146-2.703-1.014-5.176-.182-10.27 2.042-13.668 5.643-3.13 3.224-5.011 7.377-5.752 11.642-1.056 3.1-.503 6.755 1.917 9.188 2.845 2.956 7.388 4.032 11.517 3.602.494.234.15.912.155 1.307-.61 2.799-1.867 5.662-1.039 8.543.103.624 5.747 1.34 5.883 1.902-1.42.865-3.258 2.063-2.428 3.802 1.599 1.182 5.047 1.051 3.913 3.28.518 1.384-2.146-.017-2.23.948-.027.707-.493 2.004-.334 2.682.472.987 2.059 1.536 2.321 2.618 1.092 3.498-6 6.526-3.892 9.72 1.141 1.799 3.033 3.12 5.141 3.781.986 2.34 3.212 4.479 6.05 4.561 2.934.138 5.493-2.03 6.227-4.582.617-1.856.366-3.848-.217-5.677-.325-2.317-.528-5.03 1.261-6.908.771-.838 1.856-1.34 2.863-1.862.517-.689 1.473-1.172 1.556-2.068.725-.39 1.55-.571 2.327-.846.212.07.896-.403 1.373-.532 2.005-.823 3.414-2.821 3.157-4.885-.066-1.249-.795-2.348-.863-3.596-.395-2.674-.948-5.536.172-8.123.829-1.844 2.867-2.764 4.766-3.413 4.04-1.53 8.23-2.916 12.613-3.208-.764 2.908.516 5.78 1.59 8.462.59 1.505 1.132 3.237.353 4.774-.029.918-.216 1.863.256 2.716.788 2.156 2.65 4.216 5.218 4.447 2.974.295 5.593-1.724 6.998-4.003 1.518-2.384 2.088-5.407 1.041-8.052 1.13-2.048 1.438-4.729-.128-6.662-.089-.358-1.255-.91-.421-.93 2.893-.561 5.439-2.593 6.222-5.283.529-1.435.353-2.97.72-4.431.391-2.133.476-4.353 1.345-6.382 1.372.887 2.63 1.937 4.106 2.688 2.394 1.269 5.072 2.577 7.916 2.258 2.123-.233 3.802-2.034 3.842-4.01.164-1.512-.539-2.928-.636-4.417-.767-4.691-3.909-8.671-7.443-11.936-2.73-2.614-5.798-4.93-8.262-7.776-1.548-1.57-3.84-2.368-6.113-2.24zm-17.464 65.547c-1.168-.063-1.942.834-2.86 1.357-.408.936-.95 1.897-1.99 2.338-2.126 1.051-4.658 1.666-6.24 3.456-.347.886-.992 1.73-.76 2.715.145 2.699 2.236 5.151 5.018 5.91 3.844 1.168 8.695-.209 10.605-3.665.93-1.68.938-3.71.253-5.467.265-1.793.652-3.898-.738-5.395-.792-.892-2.062-1.328-3.288-1.25z" style="fill:#52864d;fill-opacity:1;stroke:none;stroke-width:3.05852;stroke-linecap:butt;stroke-linejoin:round;stroke-dasharray:none;stroke-opacity:.785;paint-order:markers stroke fill"/><path d="M325.932 113.75c-.574 4.346-2.23 9.334.881 13.31 2.7 2.582 6.65 2.819 10 2.86 4.24-.013 4.027 5.486 6.444 8.007 2.735 5.453 8.605 1.144 9.377-3.128 2.215-2.51 6.577-.064 8.8 1.893 2.095 1.681 6.28 7.783 6.715 3.457-.277-3.24 1.538-5.272 4.601-4.592 1.476-2.768.106-7.507 4.435-7.849 4.216-1.333 6.84-5.11 8.45-9.053 2.048-3.927 1.375-8.257-.178-12.336-.493-4.31-4.464-7.064-8.424-7.786-7.201-1.653-14.696-2.808-21.864-1.255-5.942.856-11.173 3.828-16.462 6.344-4.884 1.16-10.522 2.685-12.491 7.864-.27.707-.417 1.49-.284 2.264z" style="fill:#fff;fill-opacity:1;stroke:none;stroke-width:.213842px;stroke-linecap:butt;stroke-linejoin:miter;stroke-opacity:1"/></g><ellipse cx="231.506" cy="165.757" rx="12.225" ry="11.383" style="fill:#000;fill-opacity:.0988142;stroke:none;stroke-width:7.96002;stroke-linecap:round;stroke-linejoin:round;paint-order:markers stroke fill"/><ellipse cx="316.487" cy="164.88" rx="12.225" ry="11.383" style="fill:#000;fill-opacity:.0988142;stroke:none;stroke-width:7.96002;stroke-linecap:round;stroke-linejoin:round;paint-order:markers stroke fill"/><path d="M331.506 192.106c-2.104-11.484-7.927-22.201-16.388-30.263-8.594-8.288-19.706-13.746-31.5-15.655a61.126 61.126 0 0 0-11.388-.775c-11.23.306-22.462 3.795-31.803 10.142-8.156 5.477-15.425 12.726-19.75 21.496-2.569 5.17-3.907 11.256-4.736 16.885-.852 5.87.408 12.398 1.466 18.26" style="fill:none;fill-opacity:1;stroke:#fff;stroke-width:1.99001;stroke-linecap:round;stroke-linejoin:round;stroke-dasharray:none;stroke-opacity:.0671937;paint-order:markers stroke fill"/><path d="M273.66 142.382c-33.43 0-60.529 24.98-60.529 55.793a51.79 51.79 0 0 0 2.724 16.39H233.1v20.186h20.22V214.96h19.728v20.12h20.515v-20.515h20.713V194.15h19.735c-2.29-29.169-28.625-51.758-60.351-51.767zm-40.162 51.866h19.43v20.283h-19.43zm60.363 40.388v20.22h20.22v-20.22zm-40.743 9.817v20.22h20.22v-20.22z" style="fill:none;fill-opacity:1;stroke:#084551;stroke-width:1.99001;stroke-linecap:round;stroke-linejoin:round;stroke-dasharray:none;stroke-opacity:1;paint-order:markers stroke fill"/><circle cx="229.212" cy="160.166" r="12.131" style="fill:#478cbf;fill-opacity:1;stroke:#0f2d44;stroke-width:3.98002;stroke-linecap:round;stroke-linejoin:round;stroke-dasharray:none;stroke-opacity:1;paint-order:markers stroke fill"/><circle cx="318.128" cy="159.705" r="12.131" style="fill:#478cbf;fill-opacity:1;stroke:#0f2d44;stroke-width:3.98002;stroke-linecap:round;stroke-linejoin:round;stroke-dasharray:none;stroke-opacity:1;paint-order:markers stroke fill"/></g><ellipse cx="46.139" cy="65.673" rx="6.187" ry="4.331" style="fill:#5192c3;fill-opacity:1;stroke:none;stroke-width:10.8012;stroke-linecap:round;stroke-linejoin:round;stroke-opacity:1;paint-order:markers stroke fill"/><ellipse cx="148.758" cy="64.965" rx="6.187" ry="4.331" style="fill:#5192c3;fill-opacity:1;stroke:none;stroke-width:10.8012;stroke-linecap:round;stroke-linejoin:round;stroke-opacity:1;paint-order:markers stroke fill"/></svg>