<svg xmlns="http://www.w3.org/2000/svg" xml:space="preserve" width="16" height="16"><path fill="#8eef97" d="M31 .195c-.91-.045-1.924.555-1.99 1.533-.106.354.381.147.59.202H39c.046-.896-.741-1.624-1.597-1.706C36.32.162 35.23.21 34.142.195Zm8 1.735H29v1c1.218-.047 2.439.713 2.812 1.898.544 1.434-.09 3.306-1.57 3.874-.385.335-1.452-.074-1.201.631.181 1.007 1.204 1.707 2.206 1.597 1.986-.007 3.972.014 5.957-.01.992-.08 1.819-.996 1.796-1.99-1.218.047-2.439-.713-2.812-1.899-.544-1.433.09-3.305 1.57-3.873.345-.272 1.102-.05 1.242-.37Zm-10 2c-.987-.059-1.901.735-1.982 1.72-.168 1.027.553 2.148 1.625 2.254.948.184 2.01-.365 2.261-1.328.346-1.028-.221-2.334-1.328-2.577A2.3 2.3 0 0 0 29 3.93m10 0c-.987-.059-1.901.735-1.982 1.72-.168 1.027.553 2.148 1.625 2.254.948.184 2.01-.365 2.261-1.328.346-1.028-.221-2.334-1.328-2.577A2.3 2.3 0 0 0 39 3.93" style="fill:#e0e0e0;fill-opacity:1" transform="translate(-26 2.437)"/></svg>