<svg xmlns="http://www.w3.org/2000/svg" xml:space="preserve" width="18" height="18"><path d="M8.984 1.459a7.487 7.488 0 0 0-7.488 7.487 7.487 7.488 0 0 0 7.488 7.487 7.487 7.488 0 0 0 7.487-7.487A7.487 7.488 0 0 0 8.984 1.46ZM9 5.188A3.813 3.814 0 0 1 12.812 9 3.813 3.814 0 0 1 9 12.814 3.813 3.814 0 0 1 5.188 9 3.813 3.814 0 0 1 9 5.188Z" style="fill:#fff;stroke:#141414;stroke-width:1.026;stroke-linejoin:round;stroke-dasharray:none"/><circle cx="9" cy="9" r="2.888" style="fill:#141414;fill-opacity:1;stroke:#141414;stroke-width:1.01062;stroke-linecap:round;stroke-linejoin:round"/></svg>